Coordinates
version=1
nRows=8
nColumns=63
inDegrees=yes

Units are S.I. units (second, meters, Newtons, ...)
If the header above contains a line with 'inDegrees', this indicates whether rotational values are in degrees (yes) or radians (no).

endheader
time	pelvis_tilt	pelvis_list	pelvis_rotation	pelvis_tx	pelvis_ty	pelvis_tz	hip_flexion_r	hip_adduction_r	hip_rotation_r	knee_angle_r	knee_angle_r_beta	ankle_angle_r	subtalar_angle_r	mtp_angle_r	hip_flexion_l	hip_adduction_l	hip_rotation_l	knee_angle_l	knee_angle_l_beta	ankle_angle_l	subtalar_angle_l	mtp_angle_l	L5_S1_Flex_Ext	L5_S1_Lat_Bending	L5_S1_axial_rotation	L4_L5_Flex_Ext	L4_L5_Lat_Bending	L4_L5_axial_rotation	L3_L4_Flex_Ext	L3_L4_Lat_Bending	L3_L4_axial_rotation	L2_L3_Flex_Ext	L2_L3_Lat_Bending	L2_L3_axial_rotation	L1_L2_Flex_Ext	L1_L2_Lat_Bending	L1_L2_axial_rotation	L1_T12_Flex_Ext	L1_T12_Lat_Bending	L1_T12_axial_rotation	Abs_r3	Abs_r2	Abs_r1	Abs_t1	Abs_t2	neck_flexion	neck_bending	neck_rotation	arm_flex_r	arm_add_r	arm_rot_r	elbow_flex_r	pro_sup_r	wrist_flex_r	wrist_dev_r	arm_flex_l	arm_add_l	arm_rot_l	elbow_flex_l	pro_sup_l	wrist_flex_l	wrist_dev_l
1.333333	-0.657077	-5.710773	79.644366	0.198296	0.970431	0.399605	-2.121233	1.197158	3.727997	4.946657	0.086335	29.521442	11.070417	0.000000	1.498481	-1.127791	-0.600981	11.798595	0.205924	29.069066	-15.520638	0.000000	-0.270044	0.320911	1.117920	-0.501499	0.426811	1.187790	-0.443655	0.780262	1.187790	-0.308633	0.780262	0.978180	-0.250763	0.654401	0.908310	-0.154303	0.497091	0.838440	-1.928898	3.630206	6.217536	0.000000	0.000000	27.774440	-1.442454	11.212609	8.112309	-9.464102	126.316958	5.773953	13.530371	1.848808	-7.502637	13.360940	-6.349537	135.842010	12.950682	22.960911	-8.004410	-7.604298
1.350000	-0.717102	-6.002011	80.131861	0.198012	0.970445	0.399740	-1.777070	1.225004	2.770813	5.134472	0.089613	29.384253	11.544956	0.000000	1.953465	-1.144685	-0.360661	12.019107	0.209773	28.967243	-15.389264	0.000000	-0.255232	0.312417	0.903177	-0.473991	0.415515	0.959626	-0.419320	0.759611	0.959626	-0.291704	0.759611	0.790280	-0.237008	0.637081	0.733831	-0.145839	0.483934	0.677383	-1.823096	3.534126	5.023201	0.000000	0.000000	27.784940	-0.971205	11.968439	8.143092	-9.273760	133.901542	4.205640	7.000716	3.186714	-8.579823	12.876886	-6.450420	139.038104	12.575518	18.338730	-8.433109	-9.335962
1.366667	-0.835211	-6.317263	80.513824	0.197904	0.970489	0.399826	-1.413748	1.191806	1.917637	5.284857	0.092238	29.224281	12.037765	0.000000	2.397609	-1.105427	-0.216829	12.176976	0.212528	28.795266	-15.343931	0.000000	-0.238439	0.293525	0.735928	-0.442804	0.390388	0.781924	-0.391731	0.713675	0.781924	-0.272512	0.713675	0.643937	-0.221414	0.598555	0.597942	-0.136244	0.454669	0.551946	-1.703144	3.320408	4.093011	0.000000	0.000000	27.805176	-0.459906	12.501154	8.081929	-9.095170	139.758203	3.022216	1.829112	4.306082	-9.726813	12.416683	-6.653668	140.860174	12.427073	14.804416	-9.170553	-11.009046
1.383333	-0.998339	-6.650467	80.765507	0.197963	0.970565	0.399840	-1.045659	1.108676	1.259597	5.389091	0.094057	29.025114	12.466664	0.000000	2.815276	-1.028964	-0.283741	12.269629	0.214145	28.589427	-15.252000	0.000000	-0.219612	0.267022	0.623287	-0.407841	0.355140	0.662242	-0.360801	0.649238	0.662242	-0.250995	0.649238	0.545376	-0.203932	0.544512	0.506421	-0.125486	0.413618	0.467465	-1.568666	3.020609	3.466535	0.000000	0.000000	27.834664	0.082102	12.838206	7.888800	-8.954178	143.579142	2.234227	-1.762590	5.154309	-10.937687	11.994914	-6.959779	141.164642	12.518459	12.616814	-10.091579	-12.454985
1.400000	-1.188169	-6.982552	80.877851	0.198153	0.970687	0.399751	-0.700453	0.987463	0.826343	5.441477	0.094972	28.781867	12.812735	0.000000	3.172088	-0.924967	-0.534340	12.280564	0.214336	28.349846	-15.139572	0.000000	-0.200549	0.236258	0.568695	-0.372439	0.314223	0.604239	-0.329482	0.574437	0.604239	-0.229207	0.574437	0.497609	-0.186230	0.481777	0.462065	-0.114594	0.365963	0.426522	-1.432501	2.672596	3.162914	0.000000	0.000000	27.873843	0.603564	12.983204	7.526214	-8.877768	145.116808	1.836632	-3.580604	5.725119	-12.191081	11.648075	-7.338604	140.123256	12.782005	11.942254	-11.042769	-13.533438
1.416667	-1.392284	-7.302406	80.870866	0.198462	0.970843	0.399544	-0.394647	0.841213	0.631769	5.439988	0.094946	28.496697	13.026718	0.000000	3.465567	-0.806934	-0.954764	12.229639	0.213447	28.108596	-14.974037	0.000000	-0.181949	0.203157	0.557291	-0.337897	0.270198	0.592122	-0.298923	0.493955	0.592122	-0.207949	0.493955	0.487630	-0.168957	0.414277	0.452799	-0.103965	0.314690	0.417968	-1.299641	2.298150	3.099485	0.000000	0.000000	27.921450	1.140731	13.036379	7.012153	-8.879724	144.294119	1.820723	-3.483789	5.995892	-13.412767	11.349263	-7.798558	137.645644	13.206139	12.992253	-11.953885	-14.246408
1.433333	-1.602388	-7.604476	80.749725	0.198895	0.971032	0.399202	-0.134243	0.680355	0.663496	5.385361	0.093992	28.183750	13.110915	0.000000	3.688165	-0.680584	-1.503528	12.110666	0.211371	27.864464	-14.783766	0.000000	-0.163395	0.168839	0.580643	-0.303441	0.224556	0.616934	-0.268442	0.410515	0.616934	-0.186744	0.410515	0.508063	-0.151729	0.344297	0.471773	-0.093364	0.261532	0.435483	-1.167115	1.909942	3.229365	0.000000	0.000000	27.974238	1.682670	13.024554	6.402093	-8.980571	141.296280	2.143488	-1.660777	5.947894	-14.558959	11.115751	-8.327836	134.079207	13.741783	15.577401	-12.817479	-14.638507
1.450000	-1.823146	-7.888191	80.530797	0.199461	0.971223	0.398698	0.083135	0.502864	0.868495	5.278050	0.092119	27.871425	13.119278	0.000000	3.840594	-0.542298	-2.144052	11.917217	0.207995	27.640220	-14.547026	0.000000	-0.143576	0.132510	0.627351	-0.266636	0.176238	0.666560	-0.235881	0.322185	0.666560	-0.164093	0.322185	0.548932	-0.133325	0.270214	0.509723	-0.082039	0.205258	0.470513	-1.025551	1.498979	3.489137	0.000000	0.000000	28.030451	2.231515	12.960310	5.650060	-9.170837	135.599702	2.900024	2.431795	5.673318	-15.412123	10.823331	-8.952373	128.962261	14.423840	20.125282	-13.597099	-14.617064
